<?xml version="1.0" encoding="UTF-8" standalone="no"?>
<!-- Created with Inkscape (http://www.inkscape.org/) -->

<svg
   xmlns:dc="http://purl.org/dc/elements/1.1/"
   xmlns:cc="http://creativecommons.org/ns#"
   xmlns:rdf="http://www.w3.org/1999/02/22-rdf-syntax-ns#"
   xmlns:svg="http://www.w3.org/2000/svg"
   xmlns="http://www.w3.org/2000/svg"
   xmlns:sodipodi="http://sodipodi.sourceforge.net/DTD/sodipodi-0.dtd"
   xmlns:inkscape="http://www.inkscape.org/namespaces/inkscape"
   version="1.1"
   id="svg29"
   xml:space="preserve"
   width="478.94534"
   height="157.45599"
   viewBox="0 0 478.94534 157.45599"
   sodipodi:docname="Aperio Logo (Colour, RGB).ai"
   inkscape:export-filename="/home/stuart/Git/Aperio/logo/Web/Aperio Logo (Colour, RGB).png"
   inkscape:export-xdpi="96"
   inkscape:export-ydpi="96"
   inkscape:version="0.92.2 5c3e80d, 2017-08-06"><metadata
     id="metadata35"><rdf:RDF><cc:Work
         rdf:about=""><dc:format>image/svg+xml</dc:format><dc:type
           rdf:resource="http://purl.org/dc/dcmitype/StillImage" /><dc:title></dc:title></cc:Work></rdf:RDF></metadata><defs
     id="defs33"><clipPath
       clipPathUnits="userSpaceOnUse"
       id="clipPath45"><path
         d="M 0,118.092 H 359.209 V 0 H 0 Z"
         id="path43"
         inkscape:connector-curvature="0" /></clipPath><clipPath
       clipPathUnits="userSpaceOnUse"
       id="clipPath71"><path
         d="m 279.401,56.441 c 0,-18.805 14.892,-33.318 33.444,-33.318 v 0 18.426 c -8.202,0 -14.513,5.932 -14.513,14.892 v 0 c 0,8.961 6.311,14.893 14.513,14.893 v 0 18.426 c -18.552,0 -33.444,-14.514 -33.444,-33.319"
         id="path69"
         inkscape:connector-curvature="0" /></clipPath><linearGradient
       x1="0"
       y1="0"
       x2="1"
       y2="0"
       gradientUnits="userSpaceOnUse"
       gradientTransform="matrix(-54.666664,36,36,54.666664,342.45877,33.56292)"
       spreadMethod="pad"
       id="linearGradient81"><stop
         style="stop-opacity:1;stop-color:#2c48d1"
         offset="0"
         id="stop77" /><stop
         style="stop-opacity:1;stop-color:#66beff"
         offset="1"
         id="stop79" /></linearGradient><clipPath
       clipPathUnits="userSpaceOnUse"
       id="clipPath91"><path
         d="m 325.765,71.334 c 8.202,0 14.513,-5.932 14.513,-14.893 v 0 c 0,-8.96 -6.311,-14.892 -14.513,-14.892 v 0 -18.426 c 18.553,0 33.444,14.513 33.444,33.318 v 0 c 0,18.805 -14.891,33.319 -33.444,33.319 v 0 z"
         id="path89"
         inkscape:connector-curvature="0" /></clipPath><linearGradient
       x1="0"
       y1="0"
       x2="1"
       y2="0"
       gradientUnits="userSpaceOnUse"
       gradientTransform="matrix(-54.666664,36,36,54.666664,349.46902,44.208153)"
       spreadMethod="pad"
       id="linearGradient101"><stop
         style="stop-opacity:1;stop-color:#2c48d1"
         offset="0"
         id="stop97" /><stop
         style="stop-opacity:1;stop-color:#66beff"
         offset="1"
         id="stop99" /></linearGradient><clipPath
       clipPathUnits="userSpaceOnUse"
       id="clipPath111"><path
         d="M 0,118.092 H 359.209 V 0 H 0 Z"
         id="path109"
         inkscape:connector-curvature="0" /></clipPath></defs><sodipodi:namedview
     pagecolor="#ffffff"
     bordercolor="#666666"
     borderopacity="1"
     objecttolerance="10"
     gridtolerance="10"
     guidetolerance="10"
     inkscape:pageopacity="0"
     inkscape:pageshadow="2"
     inkscape:window-width="2560"
     inkscape:window-height="1410"
     id="namedview31"
     showgrid="false"
     inkscape:zoom="4.9274934"
     inkscape:cx="207.50916"
     inkscape:cy="78.727997"
     inkscape:window-x="0"
     inkscape:window-y="30"
     inkscape:window-maximized="0"
     inkscape:current-layer="g37" /><g
     id="g37"
     inkscape:groupmode="layer"
     inkscape:label="Aperio Logo (Colour, RGB)"
     transform="matrix(1.3333333,0,0,-1.3333333,0,157.456)"><g
       id="g39"><g
         id="g41"
         clip-path="url(#clipPath45)"><g
           id="g47"
           transform="translate(48.9678,56.4411)"><path
             d="m 0,0 c 0,9.466 -6.31,15.397 -15.018,15.397 -8.709,0 -15.019,-5.931 -15.019,-15.397 0,-9.465 6.31,-15.397 15.019,-15.397 C -6.31,-15.397 0,-9.465 0,0 M 18.931,31.552 V -31.552 H 0 v 5.932 c -4.164,-4.796 -10.348,-7.698 -18.805,-7.698 -16.533,0 -30.163,14.513 -30.163,33.318 0,18.805 13.63,33.319 30.163,33.319 8.457,0 14.641,-2.903 18.805,-7.698 v 5.931 z"
             style="fill:#000000;fill-opacity:1;fill-rule:nonzero;stroke:none"
             id="path49"
             inkscape:connector-curvature="0" /></g><g
           id="g51"
           transform="translate(120.9253,56.4411)"><path
             d="m 0,0 c 0,9.466 -6.31,15.397 -15.018,15.397 -8.709,0 -15.019,-5.931 -15.019,-15.397 0,-9.465 6.31,-15.397 15.019,-15.397 C -6.31,-15.397 0,-9.465 0,0 m 18.932,0 c 0,-18.805 -13.631,-33.318 -30.164,-33.318 -8.456,0 -14.64,2.902 -18.805,7.698 v -31.173 h -18.931 v 88.345 h 18.931 v -5.931 c 4.165,4.795 10.349,7.698 18.805,7.698 C 5.301,33.319 18.932,18.805 18.932,0"
             style="fill:#000000;fill-opacity:1;fill-rule:nonzero;stroke:none"
             id="path53"
             inkscape:connector-curvature="0" /></g><g
           id="g55"
           transform="translate(189.8858,63.0041)"><path
             d="m 0,0 c -2.019,7.32 -7.698,9.97 -13.377,9.97 -7.194,0 -11.99,-3.533 -13.757,-9.97 z m -11.61,-22.97 c 5.174,0 9.591,2.019 12.115,4.797 l 15.145,-8.709 c -6.183,-8.582 -15.523,-12.999 -27.513,-12.999 -21.581,0 -34.959,14.513 -34.959,33.318 0,18.805 13.63,33.319 33.571,33.319 18.426,0 32.057,-14.261 32.057,-33.319 0,-2.65 -0.253,-5.175 -0.758,-7.572 h -44.803 c 2.397,-6.563 8.203,-8.835 15.145,-8.835"
             style="fill:#000000;fill-opacity:1;fill-rule:nonzero;stroke:none"
             id="path57"
             inkscape:connector-curvature="0" /></g><g
           id="g59"
           transform="translate(250.7325,89.2556)"><path
             d="m 0,0 v -21.456 c -7.826,1.263 -18.932,-1.893 -18.932,-14.388 v -28.522 h -18.93 v 63.103 h 18.93 V -12.495 C -16.407,-4.039 -7.951,0 0,0"
             style="fill:#000000;fill-opacity:1;fill-rule:nonzero;stroke:none"
             id="path61"
             inkscape:connector-curvature="0" /></g><path
           d="m 255.238,89.256 h 19.31 V 24.889 h -19.31 z m -1.931,17.251 c 0,6.307 5.278,11.585 11.587,11.585 6.306,0 11.585,-5.278 11.585,-11.585 0,-6.309 -5.279,-11.587 -11.585,-11.587 -6.309,0 -11.587,5.278 -11.587,11.587"
           style="fill:#000000;fill-opacity:1;fill-rule:nonzero;stroke:none"
           id="path63"
           inkscape:connector-curvature="0" /></g></g><g
       id="g65"><g
         id="g67"
         clip-path="url(#clipPath71)"><g
           id="g73"><g
             id="g75"><path
               d="m 279.401,56.441 c 0,-18.805 14.892,-33.318 33.444,-33.318 v 0 18.426 c -8.202,0 -14.513,5.932 -14.513,14.892 v 0 c 0,8.961 6.311,14.893 14.513,14.893 v 0 18.426 c -18.552,0 -33.444,-14.514 -33.444,-33.319"
               style="fill:url(#linearGradient81);stroke:none"
               id="path83"
               inkscape:connector-curvature="0" /></g></g></g></g><g
       id="g85"><g
         id="g87"
         clip-path="url(#clipPath91)"><g
           id="g93"><g
             id="g95"><path
               d="m 325.765,71.334 c 8.202,0 14.513,-5.932 14.513,-14.893 v 0 c 0,-8.96 -6.311,-14.892 -14.513,-14.892 v 0 -18.426 c 18.553,0 33.444,14.513 33.444,33.318 v 0 c 0,18.805 -14.891,33.319 -33.444,33.319 v 0 z"
               style="fill:url(#linearGradient101);stroke:none"
               id="path103"
               inkscape:connector-curvature="0" /></g></g></g></g><g
       id="g105"><g
         id="g107"
         clip-path="url(#clipPath111)"><g
           id="g113"
           transform="translate(107.2915,3.697)"><path
             d="m 0,0 c 0,-2.313 -2.032,-4.007 -5.052,-4.007 -2.822,0 -4.685,1.326 -5.363,3.133 l 1.214,0.705 c 0.508,-1.524 2.033,-2.484 4.149,-2.484 1.976,0 3.641,0.876 3.641,2.653 0,3.839 -8.552,1.638 -8.552,6.718 0,2.229 1.92,4.008 4.798,4.008 2.286,0 4.037,-1.102 4.798,-2.823 L -1.552,7.226 c -0.593,1.467 -2.06,2.145 -3.613,2.145 -1.834,0 -3.387,-0.96 -3.387,-2.653 C -8.552,2.936 0,5.165 0,0"
             style="fill:#bcbcbc;fill-opacity:1;fill-rule:nonzero;stroke:none"
             id="path115"
             inkscape:connector-curvature="0" /></g><g
           id="g117"
           transform="translate(122.7007,7.0554)"><path
             d="m 0,0 c 0,3.359 -2.597,6.013 -5.955,6.013 -3.359,0 -5.983,-2.654 -5.983,-6.013 0,-3.358 2.624,-6.012 5.983,-6.012 C -2.597,-6.012 0,-3.358 0,0 m -13.378,0 c 0,4.178 3.302,7.367 7.423,7.367 4.092,0 7.395,-3.189 7.395,-7.367 0,-4.177 -3.303,-7.365 -7.395,-7.365 -4.121,0 -7.423,3.188 -7.423,7.365"
             style="fill:#bcbcbc;fill-opacity:1;fill-rule:nonzero;stroke:none"
             id="path119"
             inkscape:connector-curvature="0" /></g><g
           id="g121"
           transform="translate(129.4165,14.8737)"><path
             d="M 0,0 V -0.763 H 4.205 V -2.146 H 0 v -12.728 h -1.439 v 12.728 h -2.428 v 1.383 h 2.428 V 0 c 0,3.472 1.947,5.476 5.644,5.193 V 3.839 C 1.327,4.065 0,2.737 0,0"
             style="fill:#bcbcbc;fill-opacity:1;fill-rule:nonzero;stroke:none"
             id="path123"
             inkscape:connector-curvature="0" /></g><g
           id="g125"
           transform="translate(139.2652,12.7282)"><path
             d="m 0,0 v -9.172 c 0,-2.483 1.327,-2.54 4.205,-2.286 v -1.271 c -3.697,-0.563 -5.644,0.34 -5.644,3.557 V 0 h -3.105 v 1.383 h 3.105 V 4.912 L 0,5.335 V 1.383 H 4.205 V 0 Z"
             style="fill:#bcbcbc;fill-opacity:1;fill-rule:nonzero;stroke:none"
             id="path127"
             inkscape:connector-curvature="0" /></g><g
           id="g129"
           transform="translate(165.4839,14.111)"><path
             d="m 0,0 -4.459,-14.111 h -1.553 l -3.923,12.024 -3.923,-12.024 H -15.41 L -19.87,0 h 1.496 L -14.62,-12.277 -10.668,0 h 1.467 L -5.25,-12.277 -1.496,0 Z"
             style="fill:#bcbcbc;fill-opacity:1;fill-rule:nonzero;stroke:none"
             id="path131"
             inkscape:connector-curvature="0" /></g><g
           id="g133"
           transform="translate(180.4405,7.0554)"><path
             d="m 0,0 c 0,3.359 -2.597,6.013 -5.955,6.013 -3.359,0 -5.983,-2.654 -5.983,-6.013 0,-3.358 2.624,-6.012 5.983,-6.012 C -2.597,-6.012 0,-3.358 0,0 M 1.439,7.056 V -7.056 H 0 v 3.19 c -1.186,-2.116 -3.358,-3.499 -6.068,-3.499 -4.008,0 -7.31,3.188 -7.31,7.365 0,4.178 3.302,7.367 7.31,7.367 2.71,0 4.882,-1.383 6.068,-3.5 v 3.189 z"
             style="fill:#bcbcbc;fill-opacity:1;fill-rule:nonzero;stroke:none"
             id="path135"
             inkscape:connector-curvature="0" /></g><g
           id="g137"
           transform="translate(192.3497,14.3102)"><path
             d="m 0,0 v -1.355 c -2.427,0 -4.713,-1.497 -4.713,-5.11 v -7.846 h -1.412 v 14.112 h 1.412 V -2.965 C -3.754,-0.735 -1.919,0 0,0"
             style="fill:#bcbcbc;fill-opacity:1;fill-rule:nonzero;stroke:none"
             id="path139"
             inkscape:connector-curvature="0" /></g><g
           id="g141"
           transform="translate(194.8614,7.7048)"><path
             d="M 0,0 H 11.346 C 11.035,3.443 8.608,5.363 5.842,5.363 2.624,5.363 0.281,3.133 0,0 m 12.813,-0.705 c 0,-0.227 -0.028,-0.451 -0.028,-0.678 H 0 c 0.338,-3.189 2.765,-5.278 5.982,-5.278 2.315,0 4.065,1.073 4.883,2.569 l 1.242,-0.734 c -1.158,-1.919 -3.358,-3.189 -6.153,-3.189 -4.347,0 -7.423,3.104 -7.423,7.366 0,4.149 2.992,7.367 7.311,7.367 4.29,0 6.971,-3.557 6.971,-7.423"
             style="fill:#bcbcbc;fill-opacity:1;fill-rule:nonzero;stroke:none"
             id="path143"
             inkscape:connector-curvature="0" /></g></g></g></g></svg>